<?xml version="1.0" encoding="UTF-8" standalone="no"?>
<!-- Generator: Gravit.io -->
<svg xmlns="http://www.w3.org/2000/svg" xmlns:xlink="http://www.w3.org/1999/xlink" style="isolation:isolate" viewBox="0 0 500 500" width="500pt" height="500pt"><defs><clipPath id="_clipPath_G6fbAVHL6DQweVrfnwXSX5M6t3IgI5Of"><rect width="500" height="500"/></clipPath></defs><g clip-path="url(#_clipPath_G6fbAVHL6DQweVrfnwXSX5M6t3IgI5Of)"><path d=" M 33 122 C 38.095 109.206 39.397 95.302 47 94 C 54.603 92.698 45.524 66.222 58 62 Q 70.476 57.778 85 58 Q 99.587 114.476 119 122 C 138.413 129.524 162.825 134.952 183 137 C 203.175 139.048 228.667 171.778 241 177 C 253.333 182.222 294.286 194.032 310 184 Q 325.714 173.968 338 153 Q 344.667 158.444 359 157 Q 373.333 155.556 389 137 Q 387.841 157.746 379 163 Q 370.159 168.254 352 168 L 338 184 Q 387.27 188.952 413 184 Q 438.73 179.048 446 184 Q 416.349 192.095 425 197 Q 433.651 201.905 440 197 Q 431.651 214.921 419 210 C 406.349 205.079 357.905 199.048 338 210 Q 318.095 220.952 288 221 Q 300.254 235.81 306 236 Q 311.746 236.19 329 231 Q 327.429 242.286 338 244 C 348.571 245.714 360.127 251.206 368 251 C 375.873 250.794 386.635 238.984 413 236 C 439.365 233.016 446.54 234.063 462 231 Q 477.46 227.937 488 231 Q 454.159 238.476 462 244 Q 469.841 249.524 469 256 Q 415.841 247.238 413 256 Q 410.159 264.762 432 284 Q 475.397 298.095 465 290 Q 454.603 281.905 446 274 Q 475.746 262.286 482 274 C 488.254 285.714 488.476 309.714 469 312 Q 449.524 314.286 368 274 L 368 290 Q 353.873 264.349 329 269 Q 304.127 273.651 302 274 Q 324.667 288.444 329 302 Q 333.333 315.556 440 330 Q 398.19 335.619 401 344 Q 403.81 352.381 432 369 Q 461.937 360.222 457 369 C 452.063 377.778 420.54 388.317 409 384 Q 397.46 379.683 359 348 Q 371.714 397.397 383 406 Q 394.286 414.603 401 420 Q 368.54 417.714 363 406 Q 357.46 394.286 352 387 L 347 420 Q 341.333 360.889 324 356 C 306.667 351.111 267.81 346.349 252 330 Q 236.19 313.651 208 263 Q 207.151 256.564 205.625 251.488 C 203.448 244.249 200.24 239.086 196 236 C 186.667 229.206 151.619 225.206 132 218 C 112.381 210.794 88.317 189.556 74 197 C 59.683 204.444 26.222 229.937 22 221 C 17.778 212.063 10.032 193.397 12 184 Q 13.968 174.603 33 157 Q 72.857 164.095 85 163 C 97.143 161.905 27.905 134.794 33 122 Z " fill="rgb(232,190,18)" vector-effect="non-scaling-stroke" stroke-width="1" stroke="rgb(0,0,0)" stroke-linejoin="miter" stroke-linecap="square" stroke-miterlimit="3"/><path d=" M 193 142 C 182.5 145.5 158.5 163.5 151 172 C 143.5 180.5 130.5 198 131 207 C 131.5 216 139.5 240 156 253 Q 172.5 266 205.625 251.488 Q 200.5 241.5 213 226 Q 225.5 210.5 225 210 Q 222 219.5 228 220 C 234 220.5 242 214 249 207 Q 256 200 270 180 Q 272.5 171.5 265 172 Q 257.5 172.5 253 176 Q 250.5 167 245 169 Q 239.5 171 235 172 Q 224.5 178 218 186 Q 211.5 194 203 198 Q 203 187 206 176 C 209 165 214.5 159.5 218 160 Q 221.5 160.5 227 166 Q 232.5 154.5 228 151 C 223.5 147.5 203.5 138.5 193 142 Z " fill="rgb(4,18,8)" vector-effect="non-scaling-stroke" stroke-width="1" stroke="rgb(0,0,0)" stroke-linejoin="miter" stroke-linecap="square" stroke-miterlimit="3"/></g></svg>